HIERARCHY
ROOT Hips
{
	OFFSET 0.000000 0.000000 0.000000
	CHANNELS 6 Xposition Yposition Zposition Yrotation Xrotation Zrotation
	JOINT Chest
	{
		OFFSET 0.000000 -0.009281 11.569106
		CHANNELS 3 Yrotation Xrotation Zrotation
		JOINT Chest2
		{
			OFFSET -0.000000 0.016865 9.269641
			CHANNELS 3 Yrotation Xrotation Zrotation
			JOINT Chest3
			{
				OFFSET -0.000000 0.000001 8.374491
				CHANNELS 3 Yrotation Xrotation Zrotation
				JOINT Chest4
				{
					OFFSET -0.000000 0.000001 8.374493
					CHANNELS 3 Yrotation Xrotation Zrotation
					JOINT Neck
					{
						OFFSET -0.000000 0.000002 12.152554
						CHANNELS 3 Yrotation Xrotation Zrotation
						JOINT Head
						{
							OFFSET -0.000000 0.040101 7.802319
							CHANNELS 3 Yrotation Xrotation Zrotation
							End Site
							{
								OFFSET -0.000000 0.020947 14.853096
							}
						}
					}
					JOINT RightCollar
					{
						OFFSET 2.894404 0.000001 6.791374
						CHANNELS 3 Yrotation Xrotation Zrotation
						JOINT RightShoulder
						{
							OFFSET 13.574684 0.000001 0.000000
							CHANNELS 3 Yrotation Xrotation Zrotation
							JOINT RightElbow
							{
								OFFSET 23.923903 0.000002 0.000000
								CHANNELS 3 Yrotation Xrotation Zrotation
								JOINT RightWrist
								{
									OFFSET 19.846718 0.012767 0.000000
									CHANNELS 3 Yrotation Xrotation Zrotation
									End Site
									{
										OFFSET 14.973145 0.000001 0.000000
									}
								}
							}
						}
					}
					JOINT LeftCollar
					{
						OFFSET -2.894404 0.000001 6.791374
						CHANNELS 3 Yrotation Xrotation Zrotation
						JOINT LeftShoulder
						{
							OFFSET -13.574684 -0.000001 0.000000
							CHANNELS 3 Yrotation Xrotation Zrotation
							JOINT LeftElbow
							{
								OFFSET -23.923903 -0.000002 0.000000
								CHANNELS 3 Yrotation Xrotation Zrotation
								JOINT LeftWrist
								{
									OFFSET -19.846718 0.012763 0.000000
									CHANNELS 3 Yrotation Xrotation Zrotation
									End Site
									{
										OFFSET -14.973145 -0.000001 0.000000
									}
								}
							}
						}
					}
				}
			}
		}
	}
	JOINT RightHip
	{
		OFFSET 9.469263 0.004643 0.045487
		CHANNELS 3 Yrotation Xrotation Zrotation
		JOINT RightKnee
		{
			OFFSET 0.000000 0.002661 -40.478676
			CHANNELS 3 Yrotation Xrotation Zrotation
			JOINT RightAnkle
			{
				OFFSET 0.000000 0.049106 -35.224068
				CHANNELS 3 Yrotation Xrotation Zrotation
				JOINT RightToe
				{
					OFFSET -0.000001 12.539529 -6.151390
					CHANNELS 3 Yrotation Xrotation Zrotation
					End Site
					{
						OFFSET -0.000001 5.044994 -1.291870
					}
				}
			}
		}
	}
	JOINT LeftHip
	{
		OFFSET -9.469263 0.004641 0.045487
		CHANNELS 3 Yrotation Xrotation Zrotation
		JOINT LeftKnee
		{
			OFFSET 0.000000 0.002661 -40.478676
			CHANNELS 3 Yrotation Xrotation Zrotation
			JOINT LeftAnkle
			{
				OFFSET 0.000000 0.049106 -35.224068
				CHANNELS 3 Yrotation Xrotation Zrotation
				JOINT LeftToe
				{
					OFFSET -0.000001 12.539529 -6.151390
					CHANNELS 3 Yrotation Xrotation Zrotation
					End Site
					{
						OFFSET -0.000001 5.044994 -1.291870
					}
				}
			}
		}
	}
}
MOTION
Frames: 16
Frame Time: 0.016667
12.583704 3.105780 82.777550 -7.342268 -1.252635 -109.505725 -2.013670 -7.194218 0.565197 -0.795989 -3.014058 0.555069 -0.795990 -3.014057 0.555066 -0.594116 -2.261273 0.412273 0.274363 -20.726906 0.063049 0.517394 -2.307622 0.196040 11.469341 12.314251 1.408445 32.958289 -12.486210 -27.333099 -37.949136 -60.118287 117.411129 -43.644216 21.445932 32.522772 -6.990886 5.733187 -6.153358 -35.154130 -12.488999 25.652280 27.320664 -62.272371 -98.632146 34.096164 19.474319 -58.292857 3.864823 -8.584866 -13.767313 2.164861 -1.873763 -0.988325 -1.296871 6.056815 2.670253 -0.038959 -0.413876 -0.201258 -2.761991 -6.122159 8.059388 -0.533851 -7.215976 5.067392 1.793020 5.809307 5.727289 -0.111474 0.004932 -0.045800 
12.335734 3.055621 82.748520 -7.757681 -1.397814 -108.979206 -1.981407 -7.391203 0.340741 -0.749540 -3.018041 0.546564 -0.749540 -3.018040 0.546566 -0.559324 -2.264208 0.406125 0.181658 -21.023848 0.148969 0.373399 -2.859087 0.323629 11.368292 11.990375 1.285600 34.403103 -12.418563 -27.405072 -35.439854 -61.005310 114.856844 -46.196500 23.624682 33.336545 -7.165280 5.364216 -5.916332 -36.081253 -12.519730 25.456629 25.879875 -61.809790 -97.012810 34.029785 20.271807 -58.551025 3.952351 -8.860381 -14.078328 2.364416 -1.995772 -0.979335 -1.563364 6.103290 2.461055 -0.037787 -0.433238 -0.204189 -2.625563 -5.732850 7.270796 -0.365990 -8.496218 5.549581 1.530627 6.131436 5.553626 -0.081300 0.057781 -0.060924 
12.080148 2.999510 82.730873 -8.462260 -1.699170 -108.455167 -1.964281 -7.830219 0.074349 -0.693515 -3.074511 0.564087 -0.693515 -3.074513 0.564086 -0.517172 -2.306531 0.419475 0.114155 -21.292305 0.247446 0.278586 -3.357784 0.481709 11.252114 11.759274 1.057286 36.021933 -12.516095 -27.137764 -34.872501 -60.794482 113.535188 -48.081977 25.533300 34.329593 -7.295550 5.229719 -5.659244 -36.958126 -12.659097 25.240834 24.978128 -61.235788 -95.802248 34.066275 21.324901 -59.454536 4.091962 -9.445648 -14.381983 2.643939 -2.124999 -0.942795 -1.990483 6.057248 2.146141 0.034918 -0.379968 -0.131798 -2.383881 -5.579012 6.474361 -0.310587 -9.947766 6.262546 1.235735 6.456627 5.219300 -0.029308 0.155382 -0.084500 
11.819989 2.940659 82.738724 -9.285561 -1.999958 -107.912139 -1.951617 -8.346772 -0.220599 -0.637804 -3.147996 0.585793 -0.637804 -3.147996 0.585796 -0.475212 -2.361613 0.435949 0.049912 -21.557967 0.350599 0.190602 -3.851262 0.649308 11.263212 11.580412 1.034662 37.506905 -12.704835 -26.872532 -35.782227 -59.950257 113.077176 -49.743230 27.449835 35.300914 -7.432732 5.218495 -5.388586 -37.685791 -12.880301 25.009433 24.933285 -60.583471 -95.097325 34.376906 21.941202 -61.075927 4.233620 -10.113307 -14.686776 2.888505 -2.275778 -0.917063 -2.477166 5.907052 1.762903 0.153290 -0.235700 -0.019798 -2.124253 -5.484235 5.678463 -0.368868 -11.463964 7.107214 0.932412 6.592913 4.758384 0.023922 0.396334 -0.106798 
11.565882 2.897364 82.756233 -9.951064 -2.190288 -107.336792 -1.957758 -8.812520 -0.511133 -0.595734 -3.194071 0.600641 -0.595734 -3.194072 0.600643 -0.443544 -2.396146 0.447251 0.003893 -21.813908 0.450658 0.134310 -4.326778 0.816559 11.423397 11.472780 1.177744 38.509566 -13.006240 -26.587046 -36.842279 -59.202946 112.677515 -51.565060 29.452141 36.043117 -7.543880 5.277519 -5.200039 -38.041767 -13.087359 24.763238 25.929027 -60.100371 -95.329934 34.464527 22.991814 -62.449267 4.347299 -10.569024 -14.984725 3.078789 -2.468804 -0.922889 -2.959165 5.756871 1.366417 0.290100 -0.085363 0.120815 -1.865077 -5.124468 4.915185 -0.568331 -13.104203 7.885826 0.672541 6.588503 4.375049 0.083751 0.739806 -0.124527 
11.298014 2.874623 82.761932 -10.258391 -2.222665 -106.729991 -1.963520 -9.071177 -0.734663 -0.564608 -3.190693 0.581258 -0.564608 -3.190693 0.581257 -0.420309 -2.393563 0.432880 -0.029090 -22.077277 0.542879 0.098836 -4.816118 0.973219 11.508410 11.232226 1.151368 39.107614 -13.414695 -25.871903 -37.554514 -58.790191 112.057026 -53.423172 31.216273 36.353784 -7.585329 5.248519 -5.088029 -38.079158 -13.308570 24.395498 26.634229 -59.949069 -95.609814 34.556997 23.981334 -63.049510 4.420066 -10.654258 -15.249847 3.239174 -2.695706 -1.018062 -3.363686 5.768344 1.045057 0.390886 -0.051376 0.226767 -1.606570 -4.211284 4.219695 -0.855879 -15.011350 8.539359 0.496430 6.528539 3.977997 0.096566 1.116274 -0.130015 
11.071510 2.826350 82.783440 -10.492460 -2.119134 -106.036549 -1.991256 -9.298602 -1.014782 -0.545405 -3.164442 0.540811 -0.545405 -3.164442 0.540817 -0.406147 -2.373818 0.402683 -0.075628 -22.364264 0.636767 0.038647 -5.349234 1.128987 11.422457 10.742516 0.970230 39.421349 -13.779400 -24.676025 -37.629452 -58.808960 111.105670 -54.886034 32.445844 36.449175 -7.548524 5.072910 -5.037274 -38.088652 -13.617149 23.999989 26.105246 -59.990194 -94.998321 34.550211 24.422081 -63.364867 4.393561 -10.611262 -15.609967 3.389949 -2.935664 -1.183825 -3.696522 5.834205 0.815499 0.440665 -0.073592 0.307412 -1.470312 -3.079454 3.576531 -1.057749 -17.089357 9.090583 0.319859 6.166113 3.519398 0.041960 1.663361 -0.114743 
10.650305 2.866271 82.810898 -9.732174 -1.419891 -104.331946 -2.122082 -8.451724 -2.388057 -0.529777 -3.164785 0.492560 -0.529777 -3.164785 0.492558 -0.394679 -2.374019 0.366579 -0.143294 -22.635901 0.735825 -0.058636 -5.853661 1.288423 11.269864 10.443323 0.826343 39.575380 -14.239490 -23.463011 -37.240790 -59.051131 110.031499 -55.873826 33.144091 36.511804 -7.479180 5.050726 -5.100460 -38.210759 -14.032825 23.766357 25.043459 -60.086506 -93.989427 34.649017 24.510395 -63.611382 4.214341 -9.415363 -17.032349 3.538676 -3.166311 -1.377071 -4.000223 6.046219 0.609412 0.489035 -0.216631 0.457911 -1.665263 -0.682577 1.943313 -1.058029 -18.777105 9.726107 -0.049841 4.904883 2.489520 0.131094 2.288423 0.233519 
10.304010 2.833134 82.894455 -9.331502 -0.897716 -102.848531 -2.260371 -8.014407 -3.486702 -0.511376 -3.203682 0.449999 -0.511376 -3.203682 0.449996 -0.381071 -2.403141 0.334723 -0.214474 -22.852001 0.830433 -0.163379 -6.254832 1.439191 11.213104 10.809655 0.785953 39.649303 -15.022373 -22.701008 -37.288281 -59.147321 109.545204 -56.770787 33.594507 36.450548 -7.326626 5.227991 -5.084770 -38.441261 -14.569273 23.539006 24.583789 -60.085461 -93.561857 34.782383 24.809352 -63.562137 4.044228 -8.673065 -18.371431 3.705192 -3.345901 -1.439698 -4.298007 6.047439 0.429551 0.510902 -0.176528 0.575275 -1.854791 1.538055 0.608896 -0.997468 -21.001585 10.538126 -0.591993 3.263070 1.138770 0.278551 4.891458 0.679805 
9.935537 2.753846 83.000198 -9.007233 -0.409589 -101.361797 -2.435414 -7.669482 -4.553186 -0.491961 -3.263512 0.422801 -0.491961 -3.263512 0.422802 -0.366612 -2.447978 0.314384 -0.273594 -23.012955 0.910982 -0.249918 -6.553598 1.568132 11.245671 11.415999 0.791870 39.653056 -15.796692 -22.260801 -38.001523 -59.044151 109.796554 -57.516395 33.969597 36.337436 -7.157712 5.286273 -5.073094 -38.676578 -14.999293 23.208100 24.308910 -60.006880 -93.323620 34.963964 25.112620 -63.486513 3.899667 -8.083198 -19.831594 3.887983 -3.423135 -1.295245 -4.656043 5.945211 0.175111 0.546756 -0.087298 0.699653 -2.032111 3.790694 -0.733227 -1.035847 -23.319478 11.508612 -1.179556 1.092563 -0.351494 0.556952 7.861875 1.252056 
9.528241 2.631494 83.107887 -8.741525 0.060408 -99.843760 -2.648544 -7.410250 -5.626668 -0.475748 -3.326762 0.412075 -0.475748 -3.326763 0.412075 -0.354465 -2.495394 0.306378 -0.307852 -23.120967 0.974898 -0.295743 -6.754183 1.673912 11.255367 11.602569 0.842987 39.600720 -16.057573 -21.796933 -38.997426 -58.882391 110.437124 -58.159915 34.204911 36.153130 -7.066535 5.253972 -5.120939 -38.832023 -15.304808 22.824764 23.909765 -59.908375 -92.906753 35.128360 25.174996 -63.559705 3.794023 -7.575093 -21.376699 4.044408 -3.404221 -1.069758 -5.049829 5.781101 -0.084871 0.592783 -0.018294 0.800597 -2.191699 6.033059 -2.147234 -1.278678 -25.600606 12.677959 -1.721477 -1.539955 -1.841853 0.978260 11.098245 1.878522 
9.132361 2.482564 83.133186 -8.609223 0.479576 -98.655328 -2.913120 -7.325707 -6.344815 -0.462919 -3.381961 0.413670 -0.462919 -3.381961 0.413668 -0.344797 -2.536788 0.307596 -0.314918 -23.184218 1.021295 -0.296877 -6.871830 1.755442 11.128227 11.321850 0.777035 39.590348 -15.959452 -21.134779 -39.744751 -58.796113 110.947182 -58.618145 34.322145 36.019942 -7.002590 5.232794 -5.072542 -38.946756 -15.585146 22.371311 23.768705 -59.837846 -92.545655 35.245033 25.266746 -63.799178 3.667105 -7.219708 -22.437781 4.183531 -3.361066 -0.997579 -5.421552 5.499122 -0.248223 0.620719 0.131062 0.812502 -2.299568 8.159747 -3.191419 -1.701690 -27.761137 13.905102 -2.175323 -4.498061 -3.066548 1.521901 14.454096 2.415185 
8.965377 2.247629 83.138786 -8.978285 0.425798 -98.637405 -2.947997 -7.812004 -5.865807 -0.453504 -3.419714 0.429371 -0.453504 -3.419714 0.429373 -0.337622 -2.565107 0.319395 -0.303579 -23.214365 1.049617 -0.269327 -6.928141 1.809357 10.951957 10.872331 0.657338 39.619899 -15.795859 -20.438378 -40.158616 -58.793695 111.191409 -59.043434 34.428863 35.879363 -6.981777 5.110734 -5.048314 -38.958217 -15.752744 21.887971 23.874849 -59.789236 -92.341214 35.382227 25.666140 -63.996673 3.782554 -7.517255 -22.115770 4.299853 -3.324816 -1.166035 -5.679546 5.150512 -0.206143 0.568685 0.370385 0.633669 -1.790562 9.778595 -2.876662 -2.267921 -29.652880 15.023518 -2.323703 -7.583975 -3.618186 1.859812 17.640815 2.483134 
9.270504 1.861008 83.120094 -9.834112 -0.511631 -100.596378 -2.487538 -8.872226 -3.393699 -0.450920 -3.439232 0.455427 -0.450920 -3.439232 0.455429 -0.335523 -2.579764 0.338928 -0.287422 -23.232361 1.069549 -0.235201 -6.961897 1.849455 10.861364 10.523606 0.636579 39.645847 -15.722773 -19.954133 -40.323968 -58.839457 111.198963 -59.458655 34.551417 35.728655 -6.990529 4.973062 -5.001703 -38.917783 -15.891625 21.462780 23.743080 -59.797056 -91.967411 35.649469 26.106781 -64.159805 4.389469 -8.708802 -19.679163 4.411047 -3.274423 -1.475983 -5.678763 4.709593 0.194329 0.324766 0.803186 0.087576 0.015813 10.747188 -0.221515 -2.982631 -31.221495 16.017482 -1.922275 -9.956570 -3.346638 1.572465 19.877869 1.675955 
9.687366 1.512284 83.056099 -10.073774 -1.434994 -102.616127 -1.979487 -9.378085 -0.919751 -0.457425 -3.448214 0.484433 -0.457425 -3.448215 0.484433 -0.340229 -2.586526 0.360634 -0.269134 -23.251598 1.086709 -0.197993 -6.997990 1.885106 10.834534 10.341878 0.664579 39.734554 -15.796441 -19.719058 -40.426134 -58.854640 111.094741 -59.845803 34.678554 35.590439 -7.008866 4.910160 -4.916815 -38.923599 -16.003712 21.191686 23.376338 -59.846357 -91.389604 35.980296 26.360968 -64.398445 4.994101 -9.443156 -17.173645 4.521890 -3.186798 -1.718014 -5.659672 4.537707 0.433241 0.112421 0.998354 -0.331627 2.052945 11.874220 2.943419 -3.704044 -32.283845 16.888348 -1.209697 -11.224595 -3.099073 1.116205 20.835077 0.812669 
10.024880 1.289978 82.967049 -9.764129 -1.894427 -103.708144 -1.645785 -9.313957 0.547452 -0.472521 -3.460666 0.508177 -0.472521 -3.460666 0.508178 -0.351403 -2.595897 0.378341 -0.252894 -23.276643 1.103701 -0.164606 -7.044857 1.919883 10.810813 10.186712 0.677196 39.900234 -15.882314 -19.554951 -40.587603 -58.769222 110.976272 -60.147308 34.808334 35.499792 -7.012924 4.907499 -4.821509 -39.010304 -15.961251 21.039930 23.185806 -59.883404 -90.928615 36.331439 26.524509 -64.640794 5.379672 -9.543284 -15.780373 4.617995 -3.032854 -1.781926 -5.752779 4.470247 0.339229 0.052444 1.055144 -0.387022 3.666180 13.241986 5.594529 -4.302320 -32.850502 17.506934 -0.750214 -12.017166 -3.087440 1.135794 21.100666 0.451420 
